name C:\Users\antoi\Documents\MyRepositories\upper-imu-dc\Results\main_tracking\Case_79\ABD01_angularVelocities_groundFrame.mot
datacolumns 4
datarows 70
range 6.26000000 6.95000000
endheader 
time	radius_imu_x	radius_imu_y	radius_imu_z	
          6.26000000	         -0.54723001	          0.47715030	         -0.10090033	
          6.27000000	         -0.54614253	          0.47776230	         -0.10882316	
          6.28000000	         -0.54540379	          0.47742567	         -0.11673780	
          6.29000000	         -0.54492719	          0.47613635	         -0.12449524	
          6.30000000	         -0.54462710	          0.47391394	         -0.13194212	
          6.31000000	         -0.54441891	          0.47080015	         -0.13892452	
          6.32000000	         -0.54421795	          0.46685220	         -0.14529154	
          6.33000000	         -0.54393858	          0.46213370	         -0.15089895	
          6.34000000	         -0.54349354	          0.45671205	         -0.15561017	
          6.35000000	         -0.54279410	          0.45065956	         -0.15929691	
          6.36000000	         -0.54175189	          0.44406104	         -0.16183891	
          6.37000000	         -0.54028104	          0.43704862	         -0.16311350	
          6.38000000	         -0.53830116	          0.42979491	         -0.16300590	
          6.39000000	         -0.53574141	          0.42246271	         -0.16144114	
          6.40000000	         -0.53255265	          0.41518102	         -0.15839277	
          6.41000000	         -0.52871170	          0.40806904	         -0.15387422	
          6.42000000	         -0.52421702	          0.40112957	         -0.14799334	
          6.43000000	         -0.51910156	          0.39433846	         -0.14088931	
          6.44000000	         -0.51342372	          0.38773063	         -0.13268126	
          6.45000000	         -0.50725542	          0.38121728	         -0.12351622	
          6.46000000	         -0.50067742	          0.37479626	         -0.11349879	
          6.47000000	         -0.49376197	          0.36862972	         -0.10272677	
          6.48000000	         -0.48659434	          0.36249655	         -0.09143223	
          6.49000000	         -0.47922477	          0.35636858	         -0.07981868	
          6.50000000	         -0.47168802	          0.35029110	         -0.06809122	
          6.51000000	         -0.46406336	          0.34428010	         -0.05642747	
          6.52000000	         -0.45642499	          0.33857625	         -0.04493200	
          6.53000000	         -0.44885326	          0.33341963	         -0.03371497	
          6.54000000	         -0.44143686	          0.32896154	         -0.02290733	
          6.55000000	         -0.43426116	          0.32527763	         -0.01265256	
          6.56000000	         -0.42739168	          0.32241784	         -0.00309083	
          6.57000000	         -0.42085153	          0.32058209	          0.00570092	
          6.58000000	         -0.41463581	          0.31997046	          0.01366704	
          6.59000000	         -0.40872142	          0.32068068	          0.02074371	
          6.60000000	         -0.40306452	          0.32275827	          0.02686819	
          6.61000000	         -0.39759826	          0.32629896	          0.03200963	
          6.62000000	         -0.39225842	          0.33133790	          0.03617425	
          6.63000000	         -0.38698557	          0.33782221	          0.03938705	
          6.64000000	         -0.38169106	          0.34572903	          0.04165395	
          6.65000000	         -0.37629146	          0.35492189	          0.04297675	
          6.66000000	         -0.37073561	          0.36517959	          0.04340671	
          6.67000000	         -0.36497106	          0.37637054	          0.04305126	
          6.68000000	         -0.35895396	          0.38835188	          0.04203590	
          6.69000000	         -0.35266073	          0.40086037	          0.04047341	
          6.70000000	         -0.34607304	          0.41361722	          0.03848593	
          6.71000000	         -0.33917728	          0.42635906	          0.03620555	
          6.72000000	         -0.33196705	          0.43882188	          0.03376275	
          6.73000000	         -0.32444163	          0.45074312	          0.03127994	
          6.74000000	         -0.31660266	          0.46186494	          0.02886449	
          6.75000000	         -0.30845259	          0.47193617	          0.02660287	
          6.76000000	         -0.29999178	          0.48071991	          0.02455942	
          6.77000000	         -0.29121520	          0.48800938	          0.02277651	
          6.78000000	         -0.28211570	          0.49362212	          0.02127082	
          6.79000000	         -0.27268959	          0.49739823	          0.02003309	
          6.80000000	         -0.26294164	          0.49920926	          0.01903123	
          6.81000000	         -0.25288891	          0.49896019	          0.01821436	
          6.82000000	         -0.24256321	          0.49658835	          0.01751941	
          6.83000000	         -0.23201326	          0.49203892	          0.01687509	
          6.84000000	         -0.22130100	          0.48526430	          0.01621239	
          6.85000000	         -0.21049280	          0.47621909	          0.01547378	
          6.86000000	         -0.19964691	          0.46486870	          0.01461868	
          6.87000000	         -0.18880646	          0.45122153	          0.01362708	
          6.88000000	         -0.17800688	          0.43524556	          0.01248520	
          6.89000000	         -0.16726967	          0.41687357	          0.01118433	
          6.90000000	         -0.15659301	          0.39606943	          0.00971976	
          6.91000000	         -0.14597053	          0.37283115	          0.00809811	
          6.92000000	         -0.13540172	          0.34720539	          0.00634157	
          6.93000000	         -0.12488317	          0.31941932	          0.00450910	
          6.94000000	         -0.11441210	          0.28975270	          0.00265569	
          6.95000000	         -0.10397893	          0.25832469	          0.00075934	
